{
  "asset" : {
    "generator" : "UE Viewer (umodel) build 1590",
    "version" : "2.0"
  },
  "scene" : 0,
  "scenes" : [
    {
      "nodes" : [ 0 ]
    }
  ],
  "nodes" : [
    {
      "name" : "EnvObjMD_Furniture_A_Cupboard_B",
      "mesh" : 0
    }
  ],
  "materials" : [
    {
      "name" : "EnvObjMi_Furniture_A",
      "pbrMetallicRoughness" : {
        "baseColorFactor" : [ 0.3, 0.3, 0.3, 1.0 ],
        "metallicFactor" : 0.1,
        "roughnessFactor" : 0.5
      }
    }
  ],
  "meshes" : [
    {
      "primitives" : [
        {
          "attributes" : {
            "POSITION" : 1,
            "NORMAL" : 2,
            "TANGENT" : 3,
            "TEXCOORD_0" : 4,
            "TEXCOORD_1" : 5
          },
          "indices" : 0,
          "material" : 0
        }
      ],
      "name" : "EnvObjMD_Furniture_A_Cupboard_B"
    }
  ],
  "buffers" : [
    {
      "uri" : "EnvObjMD_Furniture_A_Cupboard_B.bin",
      "byteLength" : 34192
    }
  ],
  "bufferViews" : [
    {
      "buffer" : 0,
      "byteOffset" : 0,
      "byteLength" : 2216
    },
    {
      "buffer" : 0,
      "byteOffset" : 2216,
      "byteLength" : 6852
    },
    {
      "buffer" : 0,
      "byteOffset" : 9068,
      "byteLength" : 6852
    },
    {
      "buffer" : 0,
      "byteOffset" : 15920,
      "byteLength" : 9136
    },
    {
      "buffer" : 0,
      "byteOffset" : 25056,
      "byteLength" : 4568
    },
    {
      "buffer" : 0,
      "byteOffset" : 29624,
      "byteLength" : 4568
    }
  ],
  "accessors" : [
    {
      "bufferView" : 0,
      "componentType" : 5123,
      "count" : 1107,
      "type" : "SCALAR"
    },
    {
      "bufferView" : 1,
      "min" : [ -0.73125, -5.81707e-17, -0.98469 ],
      "max" : [ 8.9407e-08, 2.55, 0.984311 ],
      "componentType" : 5126,
      "count" : 571,
      "type" : "VEC3"
    },
    {
      "bufferView" : 2,
      "componentType" : 5126,
      "count" : 571,
      "type" : "VEC3"
    },
    {
      "bufferView" : 3,
      "componentType" : 5126,
      "count" : 571,
      "type" : "VEC4"
    },
    {
      "bufferView" : 4,
      "componentType" : 5126,
      "count" : 571,
      "type" : "VEC2"
    },
    {
      "bufferView" : 5,
      "componentType" : 5126,
      "count" : 571,
      "type" : "VEC2"
    }
  ]
}
