{
  "asset" : {
    "generator" : "UE Viewer (umodel) build 1590",
    "version" : "2.0"
  },
  "scene" : 0,
  "scenes" : [
    {
      "nodes" : [ 0 ]
    }
  ],
  "nodes" : [
    {
      "name" : "EnvObjMD_Table_A",
      "mesh" : 0
    }
  ],
  "materials" : [
    {
      "name" : "EnvObjMi_Table_A",
      "pbrMetallicRoughness" : {
        "baseColorFactor" : [ 0.3, 0.3, 0.3, 1.0 ],
        "metallicFactor" : 0.1,
        "roughnessFactor" : 0.5
      }
    }
  ],
  "meshes" : [
    {
      "primitives" : [
        {
          "attributes" : {
            "POSITION" : 1,
            "NORMAL" : 2,
            "TANGENT" : 3,
            "TEXCOORD_0" : 4
          },
          "indices" : 0,
          "material" : 0
        }
      ],
      "name" : "EnvObjMD_Table_A"
    }
  ],
  "buffers" : [
    {
      "uri" : "EnvObjMD_Table_A.bin",
      "byteLength" : 16668
    }
  ],
  "bufferViews" : [
    {
      "buffer" : 0,
      "byteOffset" : 0,
      "byteLength" : 1116
    },
    {
      "buffer" : 0,
      "byteOffset" : 1116,
      "byteLength" : 3888
    },
    {
      "buffer" : 0,
      "byteOffset" : 5004,
      "byteLength" : 3888
    },
    {
      "buffer" : 0,
      "byteOffset" : 8892,
      "byteLength" : 5184
    },
    {
      "buffer" : 0,
      "byteOffset" : 14076,
      "byteLength" : 2592
    }
  ],
  "accessors" : [
    {
      "bufferView" : 0,
      "componentType" : 5123,
      "count" : 558,
      "type" : "SCALAR"
    },
    {
      "bufferView" : 1,
      "min" : [ -2, -5.95206e-17, -0.6875 ],
      "max" : [ 2, 1.0625, 0.6875 ],
      "componentType" : 5126,
      "count" : 324,
      "type" : "VEC3"
    },
    {
      "bufferView" : 2,
      "componentType" : 5126,
      "count" : 324,
      "type" : "VEC3"
    },
    {
      "bufferView" : 3,
      "componentType" : 5126,
      "count" : 324,
      "type" : "VEC4"
    },
    {
      "bufferView" : 4,
      "componentType" : 5126,
      "count" : 324,
      "type" : "VEC2"
    }
  ]
}
