{
  "asset" : {
    "generator" : "UE Viewer (umodel) build 1590",
    "version" : "2.0"
  },
  "scene" : 0,
  "scenes" : [
    {
      "nodes" : [ 0 ]
    }
  ],
  "nodes" : [
    {
      "name" : "EnvBdgMD_Mount_A_Outdoor_Library",
      "mesh" : 0
    }
  ],
  "materials" : [
    {
      "name" : "EnvBdgMi_Mount_A_Outdoor",
      "pbrMetallicRoughness" : {
        "baseColorFactor" : [ 0.3, 0.3, 0.3, 1.0 ],
        "metallicFactor" : 0.1,
        "roughnessFactor" : 0.5
      }
    }
  ],
  "meshes" : [
    {
      "primitives" : [
        {
          "attributes" : {
            "POSITION" : 1,
            "NORMAL" : 2,
            "TANGENT" : 3,
            "TEXCOORD_0" : 4
          },
          "indices" : 0,
          "material" : 0
        }
      ],
      "name" : "EnvBdgMD_Mount_A_Outdoor_Library"
    }
  ],
  "buffers" : [
    {
      "uri" : "EnvBdgMD_Mount_A_Outdoor_Library.bin",
      "byteLength" : 430724
    }
  ],
  "bufferViews" : [
    {
      "buffer" : 0,
      "byteOffset" : 0,
      "byteLength" : 28628
    },
    {
      "buffer" : 0,
      "byteOffset" : 28628,
      "byteLength" : 100524
    },
    {
      "buffer" : 0,
      "byteOffset" : 129152,
      "byteLength" : 100524
    },
    {
      "buffer" : 0,
      "byteOffset" : 229676,
      "byteLength" : 134032
    },
    {
      "buffer" : 0,
      "byteOffset" : 363708,
      "byteLength" : 67016
    }
  ],
  "accessors" : [
    {
      "bufferView" : 0,
      "componentType" : 5123,
      "count" : 14313,
      "type" : "SCALAR"
    },
    {
      "bufferView" : 1,
      "min" : [ -6.55, -2.81669e-16, -5.3 ],
      "max" : [ 3.6197, 7.3625, 5.3 ],
      "componentType" : 5126,
      "count" : 8377,
      "type" : "VEC3"
    },
    {
      "bufferView" : 2,
      "componentType" : 5126,
      "count" : 8377,
      "type" : "VEC3"
    },
    {
      "bufferView" : 3,
      "componentType" : 5126,
      "count" : 8377,
      "type" : "VEC4"
    },
    {
      "bufferView" : 4,
      "componentType" : 5126,
      "count" : 8377,
      "type" : "VEC2"
    }
  ]
}
