{
  "asset" : {
    "generator" : "UE Viewer (umodel) build 1590",
    "version" : "2.0"
  },
  "scene" : 0,
  "scenes" : [
    {
      "nodes" : [ 0 ]
    }
  ],
  "nodes" : [
    {
      "name" : "EnvBdgMD_Mount_A_Indoor_Library",
      "mesh" : 0
    }
  ],
  "materials" : [
    {
      "name" : "EnvBdgMi_Mount_A_Indoor_Wood",
      "pbrMetallicRoughness" : {
        "baseColorFactor" : [ 0.3, 0.3, 0.3, 1.0 ],
        "metallicFactor" : 0.1,
        "roughnessFactor" : 0.5
      }
    }
  ],
  "meshes" : [
    {
      "primitives" : [
        {
          "attributes" : {
            "POSITION" : 1,
            "NORMAL" : 2,
            "TANGENT" : 3,
            "TEXCOORD_0" : 4
          },
          "indices" : 0,
          "material" : 0
        }
      ],
      "name" : "EnvBdgMD_Mount_A_Indoor_Library"
    }
  ],
  "buffers" : [
    {
      "uri" : "EnvBdgMD_Mount_A_Indoor_Library.bin",
      "byteLength" : 142728
    }
  ],
  "bufferViews" : [
    {
      "buffer" : 0,
      "byteOffset" : 0,
      "byteLength" : 10776
    },
    {
      "buffer" : 0,
      "byteOffset" : 10776,
      "byteLength" : 32988
    },
    {
      "buffer" : 0,
      "byteOffset" : 43764,
      "byteLength" : 32988
    },
    {
      "buffer" : 0,
      "byteOffset" : 76752,
      "byteLength" : 43984
    },
    {
      "buffer" : 0,
      "byteOffset" : 120736,
      "byteLength" : 21992
    }
  ],
  "accessors" : [
    {
      "bufferView" : 0,
      "componentType" : 5123,
      "count" : 5388,
      "type" : "SCALAR"
    },
    {
      "bufferView" : 1,
      "min" : [ -13, -4.76837e-08, -9.30002 ],
      "max" : [ 6.5, 5.2003, 9.30002 ],
      "componentType" : 5126,
      "count" : 2749,
      "type" : "VEC3"
    },
    {
      "bufferView" : 2,
      "componentType" : 5126,
      "count" : 2749,
      "type" : "VEC3"
    },
    {
      "bufferView" : 3,
      "componentType" : 5126,
      "count" : 2749,
      "type" : "VEC4"
    },
    {
      "bufferView" : 4,
      "componentType" : 5126,
      "count" : 2749,
      "type" : "VEC2"
    }
  ]
}
