{
  "asset" : {
    "generator" : "UE Viewer (umodel) build 1590",
    "version" : "2.0"
  },
  "scene" : 0,
  "scenes" : [
    {
      "nodes" : [ 0 ]
    }
  ],
  "nodes" : [
    {
      "name" : "EnvFldMD_FoliageGrass_B_MA",
      "mesh" : 0
    }
  ],
  "materials" : [
    {
      "name" : "EnvFldMi_FoliageGrass_B_Green",
      "pbrMetallicRoughness" : {
        "baseColorFactor" : [ 0.3, 0.3, 0.3, 1.0 ],
        "metallicFactor" : 0.1,
        "roughnessFactor" : 0.5
      }
    }
  ],
  "meshes" : [
    {
      "primitives" : [
        {
          "attributes" : {
            "POSITION" : 1,
            "NORMAL" : 2,
            "TANGENT" : 3,
            "TEXCOORD_0" : 4
          },
          "indices" : 0,
          "material" : 0
        }
      ],
      "name" : "EnvFldMD_FoliageGrass_B_MA"
    }
  ],
  "buffers" : [
    {
      "uri" : "EnvFldMD_FoliageGrass_B_MA.bin",
      "byteLength" : 408
    }
  ],
  "bufferViews" : [
    {
      "buffer" : 0,
      "byteOffset" : 0,
      "byteLength" : 24
    },
    {
      "buffer" : 0,
      "byteOffset" : 24,
      "byteLength" : 96
    },
    {
      "buffer" : 0,
      "byteOffset" : 120,
      "byteLength" : 96
    },
    {
      "buffer" : 0,
      "byteOffset" : 216,
      "byteLength" : 128
    },
    {
      "buffer" : 0,
      "byteOffset" : 344,
      "byteLength" : 64
    }
  ],
  "accessors" : [
    {
      "bufferView" : 0,
      "componentType" : 5123,
      "count" : 12,
      "type" : "SCALAR"
    },
    {
      "bufferView" : 1,
      "min" : [ -0.71775, -0.739073, -0.71775 ],
      "max" : [ 0.71775, 0.934114, 0.71775 ],
      "componentType" : 5126,
      "count" : 8,
      "type" : "VEC3"
    },
    {
      "bufferView" : 2,
      "componentType" : 5126,
      "count" : 8,
      "type" : "VEC3"
    },
    {
      "bufferView" : 3,
      "componentType" : 5126,
      "count" : 8,
      "type" : "VEC4"
    },
    {
      "bufferView" : 4,
      "componentType" : 5126,
      "count" : 8,
      "type" : "VEC2"
    }
  ]
}
