{
  "asset" : {
    "generator" : "UE Viewer (umodel) build 1590",
    "version" : "2.0"
  },
  "scene" : 0,
  "scenes" : [
    {
      "nodes" : [ 0 ]
    }
  ],
  "nodes" : [
    {
      "name" : "EnvBdgMD_Mount_A_Outdoor_Pub",
      "mesh" : 0
    }
  ],
  "materials" : [
    {
      "name" : "EnvBdgMi_Mount_A_Outdoor",
      "pbrMetallicRoughness" : {
        "baseColorFactor" : [ 0.3, 0.3, 0.3, 1.0 ],
        "metallicFactor" : 0.1,
        "roughnessFactor" : 0.5
      }
    }
  ],
  "meshes" : [
    {
      "primitives" : [
        {
          "attributes" : {
            "POSITION" : 1,
            "NORMAL" : 2,
            "TANGENT" : 3,
            "TEXCOORD_0" : 4
          },
          "indices" : 0,
          "material" : 0
        }
      ],
      "name" : "EnvBdgMD_Mount_A_Outdoor_Pub"
    }
  ],
  "buffers" : [
    {
      "uri" : "EnvBdgMD_Mount_A_Outdoor_Pub.bin",
      "byteLength" : 195860
    }
  ],
  "bufferViews" : [
    {
      "buffer" : 0,
      "byteOffset" : 0,
      "byteLength" : 13268
    },
    {
      "buffer" : 0,
      "byteOffset" : 13268,
      "byteLength" : 45648
    },
    {
      "buffer" : 0,
      "byteOffset" : 58916,
      "byteLength" : 45648
    },
    {
      "buffer" : 0,
      "byteOffset" : 104564,
      "byteLength" : 60864
    },
    {
      "buffer" : 0,
      "byteOffset" : 165428,
      "byteLength" : 30432
    }
  ],
  "accessors" : [
    {
      "bufferView" : 0,
      "componentType" : 5123,
      "count" : 6633,
      "type" : "SCALAR"
    },
    {
      "bufferView" : 1,
      "min" : [ -3.55, -1.59204e-16, -3.1818 ],
      "max" : [ 3.3, 6.8625, 3.1818 ],
      "componentType" : 5126,
      "count" : 3804,
      "type" : "VEC3"
    },
    {
      "bufferView" : 2,
      "componentType" : 5126,
      "count" : 3804,
      "type" : "VEC3"
    },
    {
      "bufferView" : 3,
      "componentType" : 5126,
      "count" : 3804,
      "type" : "VEC4"
    },
    {
      "bufferView" : 4,
      "componentType" : 5126,
      "count" : 3804,
      "type" : "VEC2"
    }
  ]
}
