{
  "asset" : {
    "generator" : "UE Viewer (umodel) build 1590",
    "version" : "2.0"
  },
  "scene" : 0,
  "scenes" : [
    {
      "nodes" : [ 0 ]
    }
  ],
  "nodes" : [
    {
      "name" : "EnvBdgMD_Forest_A_Outdoor_House_A",
      "mesh" : 0
    }
  ],
  "materials" : [
    {
      "name" : "EnvBdgMi_Forest_A_Outdoor_A",
      "pbrMetallicRoughness" : {
        "baseColorFactor" : [ 0.3, 0.3, 0.3, 1.0 ],
        "metallicFactor" : 0.1,
        "roughnessFactor" : 0.5
      }
    }
  ],
  "meshes" : [
    {
      "primitives" : [
        {
          "attributes" : {
            "POSITION" : 1,
            "NORMAL" : 2,
            "TANGENT" : 3,
            "TEXCOORD_0" : 4
          },
          "indices" : 0,
          "material" : 0
        }
      ],
      "name" : "EnvBdgMD_Forest_A_Outdoor_House_A"
    }
  ],
  "buffers" : [
    {
      "uri" : "EnvBdgMD_Forest_A_Outdoor_House_A.bin",
      "byteLength" : 104232
    }
  ],
  "bufferViews" : [
    {
      "buffer" : 0,
      "byteOffset" : 0,
      "byteLength" : 10728
    },
    {
      "buffer" : 0,
      "byteOffset" : 10728,
      "byteLength" : 23376
    },
    {
      "buffer" : 0,
      "byteOffset" : 34104,
      "byteLength" : 23376
    },
    {
      "buffer" : 0,
      "byteOffset" : 57480,
      "byteLength" : 31168
    },
    {
      "buffer" : 0,
      "byteOffset" : 88648,
      "byteLength" : 15584
    }
  ],
  "accessors" : [
    {
      "bufferView" : 0,
      "componentType" : 5123,
      "count" : 5364,
      "type" : "SCALAR"
    },
    {
      "bufferView" : 1,
      "min" : [ -2.81258, -1.28588e-16, -2.77713 ],
      "max" : [ 2.81258, 5.45, 2.77713 ],
      "componentType" : 5126,
      "count" : 1948,
      "type" : "VEC3"
    },
    {
      "bufferView" : 2,
      "componentType" : 5126,
      "count" : 1948,
      "type" : "VEC3"
    },
    {
      "bufferView" : 3,
      "componentType" : 5126,
      "count" : 1948,
      "type" : "VEC4"
    },
    {
      "bufferView" : 4,
      "componentType" : 5126,
      "count" : 1948,
      "type" : "VEC2"
    }
  ]
}
