{
  "asset" : {
    "generator" : "UE Viewer (umodel) build 1590",
    "version" : "2.0"
  },
  "scene" : 0,
  "scenes" : [
    {
      "nodes" : [ 0 ]
    }
  ],
  "nodes" : [
    {
      "name" : "EnvFldMD_Tree_A_Forest_LA_Painted",
      "mesh" : 0
    }
  ],
  "materials" : [
    {
      "name" : "EnvFldMi_Tree_B_Stem",
      "pbrMetallicRoughness" : {
        "baseColorFactor" : [ 0.3, 0.3, 0.3, 1.0 ],
        "metallicFactor" : 0.1,
        "roughnessFactor" : 0.5
      }
    },
    {
      "name" : "EnvFldMi_Tree_B_Leaf",
      "pbrMetallicRoughness" : {
        "baseColorFactor" : [ 0.9, 0.3, 0.3, 1.0 ],
        "metallicFactor" : 0.1,
        "roughnessFactor" : 0.5
      }
    }
  ],
  "meshes" : [
    {
      "primitives" : [
        {
          "attributes" : {
            "POSITION" : 1,
            "NORMAL" : 2,
            "TANGENT" : 3,
            "COLOR_0" : 4,
            "TEXCOORD_0" : 5
          },
          "indices" : 0,
          "material" : 0
        },
        {
          "attributes" : {
            "POSITION" : 7,
            "NORMAL" : 8,
            "TANGENT" : 9,
            "COLOR_0" : 10,
            "TEXCOORD_0" : 11
          },
          "indices" : 6,
          "material" : 1
        }
      ],
      "name" : "EnvFldMD_Tree_A_Forest_LA_Painted"
    }
  ],
  "buffers" : [
    {
      "uri" : "EnvFldMD_Tree_A_Forest_LA_Painted.bin",
      "byteLength" : 28248
    }
  ],
  "bufferViews" : [
    {
      "buffer" : 0,
      "byteOffset" : 0,
      "byteLength" : 456
    },
    {
      "buffer" : 0,
      "byteOffset" : 456,
      "byteLength" : 876
    },
    {
      "buffer" : 0,
      "byteOffset" : 1332,
      "byteLength" : 876
    },
    {
      "buffer" : 0,
      "byteOffset" : 2208,
      "byteLength" : 1168
    },
    {
      "buffer" : 0,
      "byteOffset" : 3376,
      "byteLength" : 292
    },
    {
      "buffer" : 0,
      "byteOffset" : 3668,
      "byteLength" : 584
    },
    {
      "buffer" : 0,
      "byteOffset" : 4252,
      "byteLength" : 2676
    },
    {
      "buffer" : 0,
      "byteOffset" : 6928,
      "byteLength" : 4920
    },
    {
      "buffer" : 0,
      "byteOffset" : 11848,
      "byteLength" : 4920
    },
    {
      "buffer" : 0,
      "byteOffset" : 16768,
      "byteLength" : 6560
    },
    {
      "buffer" : 0,
      "byteOffset" : 23328,
      "byteLength" : 1640
    },
    {
      "buffer" : 0,
      "byteOffset" : 24968,
      "byteLength" : 3280
    }
  ],
  "accessors" : [
    {
      "bufferView" : 0,
      "componentType" : 5123,
      "count" : 228,
      "type" : "SCALAR"
    },
    {
      "bufferView" : 1,
      "min" : [ 0.432794, 4.47035e-08, -0.817045 ],
      "max" : [ 0.710935, 11.75, 0.572321 ],
      "componentType" : 5126,
      "count" : 73,
      "type" : "VEC3"
    },
    {
      "bufferView" : 2,
      "componentType" : 5126,
      "count" : 73,
      "type" : "VEC3"
    },
    {
      "bufferView" : 3,
      "componentType" : 5126,
      "count" : 73,
      "type" : "VEC4"
    },
    {
      "bufferView" : 4,
      "normalized" : true,
      "componentType" : 5121,
      "count" : 73,
      "type" : "VEC4"
    },
    {
      "bufferView" : 5,
      "componentType" : 5126,
      "count" : 73,
      "type" : "VEC2"
    },
    {
      "bufferView" : 6,
      "componentType" : 5123,
      "count" : 1338,
      "type" : "SCALAR"
    },
    {
      "bufferView" : 7,
      "min" : [ -1.59187, 2.69106, -3.14601 ],
      "max" : [ 1.8355, 12.7434, 2.85399 ],
      "componentType" : 5126,
      "count" : 410,
      "type" : "VEC3"
    },
    {
      "bufferView" : 8,
      "componentType" : 5126,
      "count" : 410,
      "type" : "VEC3"
    },
    {
      "bufferView" : 9,
      "componentType" : 5126,
      "count" : 410,
      "type" : "VEC4"
    },
    {
      "bufferView" : 10,
      "normalized" : true,
      "componentType" : 5121,
      "count" : 410,
      "type" : "VEC4"
    },
    {
      "bufferView" : 11,
      "componentType" : 5126,
      "count" : 410,
      "type" : "VEC2"
    }
  ]
}
