{
  "asset" : {
    "generator" : "UE Viewer (umodel) build 1590",
    "version" : "2.0"
  },
  "scene" : 0,
  "scenes" : [
    {
      "nodes" : [ 0 ]
    }
  ],
  "nodes" : [
    {
      "name" : "EnvBdgMD_SnowHouse_A_Outdoor_House_G",
      "mesh" : 0
    }
  ],
  "materials" : [
    {
      "name" : "EnvBdgMi_SnowHouse_A_Outdoor",
      "pbrMetallicRoughness" : {
        "baseColorFactor" : [ 0.3, 0.3, 0.3, 1.0 ],
        "metallicFactor" : 0.1,
        "roughnessFactor" : 0.5
      }
    }
  ],
  "meshes" : [
    {
      "primitives" : [
        {
          "attributes" : {
            "POSITION" : 1,
            "NORMAL" : 2,
            "TANGENT" : 3,
            "TEXCOORD_0" : 4
          },
          "indices" : 0,
          "material" : 0
        }
      ],
      "name" : "EnvBdgMD_SnowHouse_A_Outdoor_House_G"
    }
  ],
  "buffers" : [
    {
      "uri" : "EnvBdgMD_SnowHouse_A_Outdoor_House_G.bin",
      "byteLength" : 486812
    }
  ],
  "bufferViews" : [
    {
      "buffer" : 0,
      "byteOffset" : 0,
      "byteLength" : 35804
    },
    {
      "buffer" : 0,
      "byteOffset" : 35804,
      "byteLength" : 112752
    },
    {
      "buffer" : 0,
      "byteOffset" : 148556,
      "byteLength" : 112752
    },
    {
      "buffer" : 0,
      "byteOffset" : 261308,
      "byteLength" : 150336
    },
    {
      "buffer" : 0,
      "byteOffset" : 411644,
      "byteLength" : 75168
    }
  ],
  "accessors" : [
    {
      "bufferView" : 0,
      "componentType" : 5123,
      "count" : 17901,
      "type" : "SCALAR"
    },
    {
      "bufferView" : 1,
      "min" : [ -3.4, -0.75, -8.9 ],
      "max" : [ 10.0758, 6.6625, 3.9 ],
      "componentType" : 5126,
      "count" : 9396,
      "type" : "VEC3"
    },
    {
      "bufferView" : 2,
      "componentType" : 5126,
      "count" : 9396,
      "type" : "VEC3"
    },
    {
      "bufferView" : 3,
      "componentType" : 5126,
      "count" : 9396,
      "type" : "VEC4"
    },
    {
      "bufferView" : 4,
      "componentType" : 5126,
      "count" : 9396,
      "type" : "VEC2"
    }
  ]
}
